<svg width="20" height="17" viewBox="0 0 20 17" fill="none" xmlns="http://www.w3.org/2000/svg">
<path d="M6.175 4.16107C7.04452 3.33809 8.14179 2.78806 9.32804 2.58055C10.5143 2.37303 11.7363 2.51734 12.8394 2.99524C13.9426 3.47313 14.8774 4.26314 15.5256 5.26537C16.1738 6.2676 16.5063 7.43702 16.4811 8.62577C16.4559 9.81452 16.0741 10.9692 15.384 11.9438C14.6939 12.9184 13.7264 13.6691 12.604 14.101C11.4815 14.533 10.2545 14.6267 9.07807 14.3704C7.90165 14.1141 6.82866 13.5192 5.99478 12.6611" stroke="#7F8596"/>
<path d="M0 8.75001H9.62581M9.62581 8.75001L7.16339 7M9.62581 8.75001L7.6111 10.5" stroke="#7F8596"/>
</svg>
