<svg width="36" height="32" viewBox="0 0 36 32" fill="none" xmlns="http://www.w3.org/2000/svg">
<path d="M11.4631 7.8326C13.0785 6.28346 15.117 5.24812 17.3207 4.8575C19.5245 4.46688 21.7946 4.73853 23.844 5.63809C25.8934 6.53766 27.63 8.02474 28.8343 9.91128C30.0385 11.7978 30.6563 13.9991 30.6094 16.2367C30.5626 18.4744 29.8533 20.6479 28.5712 22.4824C27.2891 24.3169 25.4918 25.7301 23.4066 26.5431C21.3214 27.3561 19.0419 27.5326 16.8564 27.0501C14.6708 26.5677 12.6775 25.448 11.1283 23.8326" stroke="#DA358E"/>
<path d="M0 16.4699H17.8824M17.8824 16.4699L13.3078 13.1758M17.8824 16.4699L14.1396 19.764" stroke="#DA358E"/>
</svg>
