<svg width="18" height="18" viewBox="0 0 18 18" fill="none" xmlns="http://www.w3.org/2000/svg">
<path fill-rule="evenodd" clip-rule="evenodd" d="M5.18209 0.868707C3.02561 1.12139 1.41164 1.99331 0.961633 3.14872C0.25491 4.96333 2.75456 6.63705 6.17132 6.63705C8.09029 6.63705 9.79358 6.10682 10.7277 5.21867C11.1718 4.7964 11.3951 4.3618 11.4272 3.8577C11.5157 2.46396 9.86474 1.24535 7.41679 0.897589C6.94588 0.830687 5.64952 0.813946 5.18209 0.868707ZM0.842256 6.35679C0.842256 6.90453 0.879081 7.10399 1.03831 7.41868C1.50944 8.34987 2.84359 9.09253 4.56552 9.38215C5.01536 9.4578 5.58356 9.51244 5.92213 9.5126L6.16755 9.51269L6.3474 9.15326C6.57952 8.6894 6.92776 8.16872 7.25854 7.79096C7.52034 7.49198 7.52085 7.49105 7.41267 7.51028C7.10981 7.56421 6.29733 7.60163 5.83134 7.58316C3.83492 7.50393 2.1915 6.97657 1.07361 6.05647L0.842256 5.86606V6.35679ZM11.3727 6.65721C10.7155 6.73868 10.145 6.90938 9.56979 7.19661C9.02843 7.46696 8.63102 7.75402 8.19818 8.18735C7.76538 8.62071 7.47866 9.0186 7.20863 9.56062C6.97192 10.0358 6.84249 10.4124 6.73933 10.9263C6.63517 11.4449 6.63517 12.3728 6.73933 12.8915C6.84249 13.4053 6.97192 13.782 7.20863 14.2571C7.47866 14.7991 7.76538 15.197 8.19818 15.6304C8.629 16.0617 9.02569 16.3478 9.56979 16.6194C10.0501 16.8591 10.4238 16.9884 10.9315 17.0906C11.452 17.1953 12.3775 17.1955 12.8966 17.091C13.4098 16.9877 13.786 16.8581 14.2606 16.6211C14.802 16.3508 15.1994 16.0637 15.6323 15.6304C16.0662 15.1959 16.3529 14.7976 16.6207 14.2571C16.8599 13.7743 16.9892 13.3993 17.0907 12.8938C17.1953 12.3727 17.1955 11.4461 17.0911 10.9263C16.9879 10.4124 16.8585 10.0358 16.6218 9.56062C16.3518 9.0186 16.0651 8.62071 15.6323 8.18735C15.1994 7.75402 14.802 7.46696 14.2606 7.19661C13.4984 6.81597 12.8924 6.66852 12.0269 6.65306C11.7285 6.64772 11.4342 6.64957 11.3727 6.65721ZM12.3939 9.08096V9.60768L12.5121 9.65713C12.9358 9.83442 13.2661 10.2913 13.3372 10.7986L13.3584 10.9504H12.8797H12.401L12.3799 10.8381C12.3525 10.6917 12.1736 10.5126 12.0274 10.4851C11.8502 10.4518 11.7016 10.4954 11.5812 10.616C11.3901 10.8073 11.3901 11.0935 11.5812 11.2848C11.6461 11.3498 11.7334 11.4009 11.7951 11.4101C11.8524 11.4186 11.9973 11.4401 12.1171 11.4577C12.7421 11.5498 13.2213 12.0253 13.3259 12.6572C13.4212 13.2333 13.0927 13.8744 12.5713 14.1298L12.3939 14.2167V14.7401V15.2635H11.9152H11.4366V14.7368V14.2101L11.3183 14.1606C10.8946 13.9833 10.5643 13.5264 10.4933 13.0191L10.472 12.8673H10.9507H11.4294L11.4505 12.9796C11.4628 13.0451 11.5173 13.1377 11.5812 13.2018C11.7723 13.3931 12.0581 13.3931 12.2492 13.2018C12.4403 13.0104 12.4403 12.7243 12.2492 12.5329C12.1843 12.4679 12.097 12.4168 12.0354 12.4076C11.9781 12.3991 11.8331 12.3777 11.7133 12.36C11.0883 12.2679 10.6092 11.7924 10.5046 11.1606C10.4092 10.5845 10.7377 9.94337 11.2591 9.68796L11.4366 9.60103V9.07764V8.55422H11.9152H12.3939V9.08096ZM0.849053 9.3094C0.860413 9.80212 0.871773 9.90448 0.932339 10.0586C1.26603 10.9077 2.20369 11.6101 3.53133 12.0056C4.13683 12.186 5.12465 12.3563 5.56483 12.3561L5.70862 12.3561L5.71302 11.821C5.71621 11.4336 5.73603 11.1813 5.78482 10.9073C5.8219 10.6991 5.85221 10.5086 5.85221 10.484C5.85221 10.4503 5.80183 10.4392 5.64818 10.4392C5.36676 10.4392 4.85922 10.3863 4.38433 10.3075C3.07472 10.0902 1.92779 9.61848 1.11311 8.96205L0.835938 8.73869L0.849053 9.3094ZM0.842256 12.1088C0.842256 12.6553 0.879176 12.855 1.03831 13.1695C1.66175 14.4017 3.7621 15.2629 6.1455 15.2634C6.41167 15.2635 6.6225 15.2502 6.63329 15.2328C6.64372 15.2159 6.61338 15.1404 6.56583 15.065C6.334 14.6976 6.06987 14.0522 5.8659 13.3546C5.85812 13.328 5.78571 13.3146 5.64917 13.3146C5.36941 13.3146 4.86046 13.262 4.40028 13.1854C3.0751 12.965 1.93053 12.4961 1.11627 11.84L0.842256 11.6192V12.1088Z" fill="url(#paint0_linear_240_3590)"/>
<defs>
<linearGradient id="paint0_linear_240_3590" x1="9.0026" y1="0.835937" x2="9.0026" y2="17.1693" gradientUnits="userSpaceOnUse">
<stop stop-color="#FF9B2E"/>
<stop offset="1" stop-color="#E1A461"/>
</linearGradient>
</defs>
</svg>
