<svg width="16" height="16" viewBox="0 0 16 16" fill="none" xmlns="http://www.w3.org/2000/svg">
<path fill-rule="evenodd" clip-rule="evenodd" d="M7.28783 0.527999C6.40187 0.611908 5.42479 0.894792 4.63187 1.29694C1.30753 2.983 -0.284505 6.82403 0.878378 10.3529C1.26242 11.5183 1.86795 12.4881 2.75998 13.3664C3.93216 14.5206 5.37388 15.22 7.08252 15.4633C7.43092 15.5129 8.58316 15.512 8.94494 15.462C10.6643 15.2239 12.1465 14.4884 13.3364 13.283C14.5211 12.083 15.2137 10.6643 15.4617 8.92996C15.5198 8.52309 15.51 7.39722 15.4445 6.96427C15.3766 6.51562 15.2013 5.81613 15.0622 5.43866C14.928 5.07456 14.569 4.33842 14.3826 4.04507C13.9568 3.37506 13.3095 2.64338 12.7284 2.17528C11.5526 1.22814 10.1677 0.665568 8.66631 0.52527C8.29459 0.490533 7.6704 0.491766 7.28783 0.527999ZM8.53433 2.02169C9.27686 2.08741 9.96235 2.27835 10.6314 2.60577C11.6756 3.11676 12.4741 3.83527 13.0952 4.82254C13.2518 5.07131 13.5171 5.59219 13.563 5.74079L13.5838 5.80821L13.4714 5.75994C11.5052 4.91578 9.47354 4.55048 7.33528 4.6566C5.59822 4.74283 4.11289 5.08468 2.54136 5.75991L2.42897 5.80821L2.44879 5.74079C2.49651 5.57866 2.80696 4.98669 2.98848 4.71176C3.26307 4.29579 3.49098 4.02092 3.84572 3.67789C4.33852 3.20134 4.78735 2.8895 5.41074 2.5906C6.397 2.11769 7.4506 1.92581 8.53433 2.02169ZM8.49159 6.99293C8.71353 7.10157 8.91036 7.29864 9.02002 7.52209C9.0988 7.6826 9.10625 7.72432 9.10625 8.00579C9.10625 8.28727 9.0988 8.32899 9.02002 8.4895C8.91021 8.71324 8.71362 8.9099 8.48995 9.01974C8.32949 9.09854 8.28778 9.106 8.0064 9.106C7.72501 9.106 7.6833 9.09854 7.52284 9.01974C7.29997 8.91028 7.10249 8.71327 6.99462 8.49267C6.88739 8.27348 6.86023 7.92432 6.93136 7.67964C7.02547 7.35574 7.33472 7.03662 7.65353 6.93434C7.73988 6.90665 7.87943 6.89453 8.05203 6.89975C8.2757 6.90653 8.34509 6.92126 8.49159 6.99293ZM2.47938 8.49097C4.22753 8.79591 6.10236 10.7672 6.6268 12.8517C6.71276 13.1933 6.79887 13.8296 6.76391 13.8646C6.73846 13.8901 6.28277 13.7677 5.95334 13.647C4.10233 12.9686 2.69513 11.4105 2.198 9.48901C2.12429 9.20407 2.02319 8.62836 2.02319 8.49346C2.02319 8.432 2.1377 8.43138 2.47938 8.49097ZM13.9756 8.62924C13.9386 8.97127 13.8113 9.5447 13.6939 9.89814C13.0718 11.77 11.5557 13.2296 9.6685 13.7735C9.47768 13.8285 9.30123 13.8735 9.27645 13.8735C9.23806 13.8735 9.23424 13.8397 9.25087 13.6462C9.32845 12.7427 9.64996 11.8674 10.2292 10.9827C11.0977 9.65601 12.3571 8.70153 13.5158 8.49179C13.6393 8.46943 13.7977 8.44995 13.8678 8.44851L13.9953 8.44587L13.9756 8.62924Z" fill="#F7DE04"/>
</svg>
