<svg width="24" height="24" viewBox="0 0 24 24" fill="none" xmlns="http://www.w3.org/2000/svg">
<path fill-rule="evenodd" clip-rule="evenodd" d="M3 5.5C3 5.36739 3.05268 5.24021 3.14645 5.14645C3.24021 5.05268 3.36739 5 3.5 5H20.5C20.6326 5 20.7598 5.05268 20.8536 5.14645C20.9473 5.24021 21 5.36739 21 5.5C21 5.63261 20.9473 5.75979 20.8536 5.85355C20.7598 5.94732 20.6326 6 20.5 6H3.5C3.36739 6 3.24021 5.94732 3.14645 5.85355C3.05268 5.75979 3 5.63261 3 5.5ZM3 12C3 11.8674 3.05268 11.7402 3.14645 11.6464C3.24021 11.5527 3.36739 11.5 3.5 11.5H17.5C17.6326 11.5 17.7598 11.5527 17.8536 11.6464C17.9473 11.7402 18 11.8674 18 12C18 12.1326 17.9473 12.2598 17.8536 12.3536C17.7598 12.4473 17.6326 12.5 17.5 12.5H3.5C3.36739 12.5 3.24021 12.4473 3.14645 12.3536C3.05268 12.2598 3 12.1326 3 12ZM3 18.5C3 18.3674 3.05268 18.2402 3.14645 18.1464C3.24021 18.0527 3.36739 18 3.5 18H13.5C13.6326 18 13.7598 18.0527 13.8536 18.1464C13.9473 18.2402 14 18.3674 14 18.5C14 18.6326 13.9473 18.7598 13.8536 18.8536C13.7598 18.9473 13.6326 19 13.5 19H3.5C3.36739 19 3.24021 18.9473 3.14645 18.8536C3.05268 18.7598 3 18.6326 3 18.5Z" fill="white"/>
</svg>
