<svg width="16" height="16" viewBox="0 0 16 16" fill="none" xmlns="http://www.w3.org/2000/svg">
<circle cx="8" cy="8" r="8" fill="#30B38C"/>
<path fill-rule="evenodd" clip-rule="evenodd" d="M7.4059 6.77885H12.3495C12.7051 6.77885 13 7.10577 13 7.5V9.27885C13 9.68269 12.7051 10 12.3495 10C11.9853 10 11.699 9.68269 11.699 9.27885V8.22115H10.5455V9.27885C10.5455 9.68269 10.2507 10 9.89506 10C9.53079 10 9.24458 9.68269 9.24458 9.27885V8.22115H7.4059C7.12836 9.25 6.2784 10 5.26366 10C4.01474 10 3 8.88462 3 7.5C3 6.125 4.01474 5 5.26366 5C6.2784 5 7.12836 5.75 7.4059 6.77885ZM4.67188 7.49935C4.67188 7.96147 5.04895 8.33268 5.50898 8.33268C5.96147 8.33268 6.33854 7.96147 6.33854 7.49935C6.33854 7.03723 5.96147 6.66602 5.50898 6.66602C5.04895 6.66602 4.67188 7.03723 4.67188 7.49935Z" fill="#222228"/>
</svg>
