<svg width="14" height="14" viewBox="0 0 14 14" fill="none" xmlns="http://www.w3.org/2000/svg">
<path fill-rule="evenodd" clip-rule="evenodd" d="M4.09679 0.286474C4.05901 0.307019 4.00561 0.356996 3.97814 0.397505C3.92949 0.469292 3.92823 0.637341 3.92823 6.9985C3.92823 13.366 3.92944 13.5276 3.97827 13.5997C4.03475 13.683 4.14813 13.75 4.23274 13.75C4.33452 13.75 4.4634 13.6695 4.50627 13.5792C4.54379 13.5001 4.54785 12.8568 4.54785 6.9985C4.54785 -0.199792 4.56254 0.376644 4.37705 0.288584C4.27008 0.237816 4.18744 0.237183 4.09679 0.286474ZM5.95723 0.889626C5.91304 0.909432 5.85371 0.959884 5.8254 1.00171C5.77472 1.07656 5.77393 1.16942 5.77393 6.9985V12.9192L5.83457 13.0043C5.92274 13.128 6.06639 13.1658 6.19981 13.1007C6.26217 13.0702 6.31904 13.0155 6.34736 12.9588C6.39084 12.8718 6.39348 12.5325 6.3935 7.00425C6.39356 0.658994 6.40168 1.01743 6.25595 0.921933C6.16332 0.861222 6.0483 0.848774 5.95723 0.889626ZM9.6499 0.890259C9.60639 0.909617 9.54707 0.952078 9.51806 0.984596C9.46567 1.04335 9.46533 1.08102 9.46533 6.9985C9.46533 12.916 9.46567 12.9536 9.51806 13.0124C9.71729 13.2359 10.0352 13.1255 10.0711 12.8202C10.0801 12.7441 10.0839 10.071 10.0796 6.87982C10.0724 1.5263 10.0684 1.07297 10.0281 1.01598C9.93432 0.883613 9.78 0.832291 9.6499 0.890259ZM2.25913 2.74381C2.08397 2.83016 2.09571 2.52489 2.09571 6.9985C2.09571 10.5048 2.10098 11.0728 2.1341 11.1368C2.17252 11.2111 2.31471 11.2973 2.39893 11.2973C2.48093 11.2973 2.61163 11.2183 2.65717 11.1412C2.69904 11.0703 2.70215 10.7841 2.70215 6.9985C2.70215 3.21288 2.69904 2.92673 2.65717 2.85582C2.61053 2.77683 2.47969 2.69924 2.39495 2.70029C2.36813 2.70061 2.30701 2.72021 2.25913 2.74381ZM7.81986 3.34137C7.77045 3.35833 7.70519 3.4057 7.67484 3.44665L7.61963 3.5211L7.61275 6.96102C7.60526 10.702 7.59869 10.5271 7.75012 10.6263C7.89308 10.72 8.10832 10.6655 8.18876 10.5151C8.24471 10.4106 8.24471 3.58643 8.18876 3.48186C8.11773 3.34915 7.96575 3.29126 7.81986 3.34137ZM11.4934 3.34343C11.4486 3.3631 11.3863 3.41184 11.3549 3.45177L11.2978 3.52437V6.9985V10.4726L11.355 10.5453C11.4596 10.6784 11.6569 10.718 11.7737 10.6294C11.7961 10.6123 11.8347 10.5691 11.8594 10.5332C11.9011 10.4726 11.9043 10.2244 11.9043 7.0033C11.9043 3.85992 11.9003 3.53189 11.8617 3.46641C11.7844 3.33557 11.6292 3.28375 11.4934 3.34343ZM0.416673 5.19492C0.246711 5.27876 0.250007 5.24324 0.250007 6.9985C0.250007 8.76014 0.24621 8.72013 0.420813 8.80302C0.531318 8.85548 0.575668 8.85521 0.688835 8.80149C0.861989 8.71931 0.856451 8.77894 0.856451 6.9985C0.856451 5.21805 0.861989 5.27768 0.688835 5.1955C0.576538 5.1422 0.523803 5.1421 0.416673 5.19492ZM13.307 5.19651C13.1385 5.27958 13.1435 5.22346 13.1435 6.9985C13.1435 8.77894 13.138 8.71931 13.3112 8.80149C13.4243 8.85521 13.4687 8.85548 13.5792 8.80302C13.7538 8.72013 13.75 8.76014 13.75 6.9985C13.75 5.23686 13.7538 5.27686 13.5792 5.19397C13.4694 5.14189 13.4168 5.14239 13.307 5.19651Z" fill="#9F73E6"/>
</svg>
