<svg width="108" height="118" viewBox="0 0 108 118" fill="none" xmlns="http://www.w3.org/2000/svg">
<path d="M44.4721 2.94779C50.3139 -0.647055 57.6819 -0.647051 63.5237 2.9478L80.3725 13.3159L97.7759 22.7233C103.81 25.985 107.494 32.3659 107.302 39.2224L106.747 58.9979L107.302 78.7734C107.494 85.63 103.81 92.0109 97.7759 95.2726L80.3725 104.68L63.5237 115.048C57.6819 118.643 50.3139 118.643 44.4721 115.048L27.6234 104.68L10.22 95.2726C4.18586 92.0109 0.501863 85.63 0.694195 78.7734L1.24891 58.9979L0.694195 39.2224C0.501863 32.3659 4.18586 25.985 10.22 22.7233L27.6234 13.3159L44.4721 2.94779Z" fill="#1A1A1F"/>
</svg>
