<svg width="124" height="136" viewBox="0 0 124 136" fill="none" xmlns="http://www.w3.org/2000/svg">
<path d="M71.5258 2.86186C65.684 -0.732986 58.316 -0.732988 52.4742 2.86186L31.754 15.6124L10.3516 27.1813C4.31749 30.4431 0.633484 36.8239 0.825821 43.6805L1.508 68L0.825821 92.3195C0.633484 99.176 4.31749 105.557 10.3516 108.819L31.754 120.388L52.4742 133.138C58.316 136.733 65.684 136.733 71.5258 133.138L92.246 120.388L113.648 108.819C119.683 105.557 123.367 99.1761 123.174 92.3195L122.492 68L123.174 43.6805C123.367 36.8239 119.683 30.4431 113.648 27.1813L92.246 15.6124L71.5258 2.86186Z" fill="#26272D"/>
</svg>
