<svg width="16" height="14" viewBox="0 0 16 14" fill="none" xmlns="http://www.w3.org/2000/svg">
<path d="M14.9375 8.10729C14.3218 8.10729 13.8207 7.61087 13.8207 7.00074C13.8207 6.38988 14.3218 5.89345 14.9375 5.89345C15.0868 5.89345 15.23 5.83475 15.335 5.73071C15.4408 5.62592 15.5 5.48398 15.5 5.33609L15.4993 3.32811C15.4993 1.63077 14.105 0.25 12.392 0.25H3.608C1.895 0.25 0.50075 1.63077 0.50075 3.32811L0.5 5.40075C0.5 5.54863 0.55925 5.69058 0.665 5.79536C0.77 5.8994 0.91325 5.95811 1.0625 5.95811C1.69925 5.95811 2.17925 6.40623 2.17925 7.00074C2.17925 7.61087 1.67825 8.10729 1.0625 8.10729C0.752 8.10729 0.5 8.35699 0.5 8.66465V10.6711C0.5 12.3685 1.8935 13.75 3.60725 13.75H12.3928C14.1065 13.75 15.5 12.3685 15.5 10.6711V8.66465C15.5 8.35699 15.248 8.10729 14.9375 8.10729" fill="#71BBD2"/>
<path d="M10.5724 6.69139L9.68814 7.55239L9.89739 8.76964C9.93339 8.98039 9.84864 9.18814 9.67539 9.31264C9.50364 9.43864 9.27939 9.45439 9.09039 9.35389L7.99914 8.78014L6.90564 9.35464C6.82464 9.39739 6.73614 9.41989 6.64839 9.41989C6.53364 9.41989 6.42039 9.38389 6.32289 9.31339C6.15039 9.18814 6.06564 8.98039 6.10164 8.76964L6.31014 7.55239L5.42589 6.69139C5.27289 6.54289 5.21964 6.32464 5.28564 6.12139C5.35239 5.91889 5.52489 5.77489 5.73564 5.74489L6.95514 5.56714L7.50189 4.45939C7.59714 4.26889 7.78764 4.15039 7.99914 4.15039H8.00064C8.21289 4.15114 8.40339 4.26964 8.49714 4.46014L9.04389 5.56714L10.2656 5.74564C10.4741 5.77489 10.6466 5.91889 10.7126 6.12139C10.7794 6.32464 10.7261 6.54289 10.5724 6.69139" fill="#222228"/>
</svg>
